# xmcd
#
# Track frame offsets: 
#        150
#        19035
#        39042
#        67012
#        93165
#        114362
#        134827
#        169620
#        185097
#        201217
#        215700
#        231282
#        248157
#        270047
#
# Disc length: 3860 seconds
#
# Revision: 3
# Processed by: cddbd v1.5.2PL0 Copyright (c) Steve Scherf et al.
# Submitted via: ExactAudioCopy v0.95b3
#
DISCID=c00f120e
DTITLE=Jerry Jeff Walker - Great Gonzos
DYEAR=1991
DGENRE=Country
TTITLE0=Gettin' By
TTITLE1=Sangria Wine
TTITLE2=Mr. Bojangles
TTITLE3=Desperados Waiting ForThe Train
TTITLE4=Pick Up The Tempo
TTITLE5=Up Against The Wall Redneck
TTITLE6=London Homesick Blues
TTITLE7=Takin' It As It Comes
TTITLE8=Backsliders Wine
TTITLE9=Old Five And Dimers Like Me
TTITLE10=Charlie Dunn
TTITLE11=Railroad Lady
TTITLE12=L.A. Freeway
TTITLE13=Don't It Make You Wanna Dance
EXTD=
EXTT0=
EXTT1=
EXTT2=
EXTT3=
EXTT4=
EXTT5=
EXTT6=
EXTT7=
EXTT8=
EXTT9=
EXTT10=
EXTT11=
EXTT12=
EXTT13=
PLAYORDER=
